<?xml version="1.0" encoding="UTF-8"?>
<svg xmlns="http://www.w3.org/2000/svg" xmlns:xlink="http://www.w3.org/1999/xlink" width="192px" height="192px" viewBox="0 0 192 192" version="1.1">
<g id="surface1">
<path style=" stroke:none;fill-rule:nonzero;fill:rgb(0%,0%,0%);fill-opacity:1;" d="M 97.632812 187.492188 C 87.417969 187.492188 77.597656 185.929688 68.171875 182.804688 L 72.25 176.585938 C 80.40625 179.050781 88.867188 180.28125 97.632812 180.28125 C 109.65625 180.28125 120.929688 178.042969 131.445312 173.566406 C 141.960938 169.089844 151.207031 162.882812 159.183594 154.953125 C 167.160156 147.019531 173.402344 137.824219 177.902344 127.367188 C 182.40625 116.914062 184.65625 105.707031 184.65625 93.746094 C 184.65625 81.789062 182.40625 70.582031 177.902344 60.125 C 173.402344 49.667969 167.160156 40.472656 159.183594 32.539062 C 151.207031 24.609375 141.960938 18.402344 131.445312 13.925781 C 120.929688 9.449219 109.65625 7.210938 97.632812 7.210938 C 85.605469 7.210938 74.335938 9.449219 63.820312 13.925781 C 53.304688 18.402344 44.058594 24.609375 36.078125 32.539062 C 28.101562 40.472656 21.863281 49.667969 17.359375 60.125 C 12.855469 70.582031 10.605469 81.789062 10.605469 93.746094 C 10.605469 99.757812 11.210938 105.707031 12.417969 111.59375 L 5.4375 113.398438 C 4.769531 110.191406 4.257812 106.960938 3.898438 103.707031 C 3.535156 100.433594 3.355469 97.113281 3.355469 93.746094 C 3.355469 80.765625 5.785156 68.613281 10.652344 57.285156 C 15.515625 45.957031 22.269531 35.996094 30.914062 27.402344 C 39.554688 18.808594 49.570312 12.09375 60.964844 7.257812 C 72.355469 2.417969 84.578125 0 97.632812 0 C 110.625 0 122.816406 2.417969 134.210938 7.257812 C 145.601562 12.09375 155.617188 18.808594 164.261719 27.402344 C 172.902344 35.996094 179.671875 45.957031 184.566406 57.285156 C 189.460938 68.613281 191.910156 80.765625 191.910156 93.746094 C 191.910156 106.726562 189.460938 118.878906 184.566406 130.207031 C 179.671875 141.535156 172.902344 151.496094 164.261719 160.089844 C 155.617188 168.683594 145.601562 175.398438 134.210938 180.238281 C 122.816406 185.074219 110.625 187.492188 97.632812 187.492188 M 40.972656 192 C 29.429688 192 20.683594 188.949219 14.730469 182.851562 C 8.777344 176.75 5.800781 168.441406 5.800781 157.925781 C 5.800781 155.101562 6.074219 152.414062 6.617188 149.859375 C 7.160156 147.304688 7.433594 145.007812 7.433594 142.964844 C 7.433594 140.320312 7.011719 137.902344 6.164062 135.707031 C 5.316406 133.511719 4.410156 131.425781 3.445312 129.441406 C 2.476562 127.460938 1.648438 125.507812 0.953125 123.582031 C 0.257812 121.660156 -0.0898438 119.707031 -0.0898438 117.722656 C -0.0898438 114.480469 0.9375 111.835938 2.992188 109.792969 C 5.046875 107.75 7.886719 106.726562 11.511719 106.726562 C 15.257812 106.726562 18.675781 107.808594 21.757812 109.972656 C 24.839844 112.136719 27.226562 115.019531 28.917969 118.625 L 29.644531 120.15625 C 30.851562 122.742188 31.832031 124.53125 32.589844 125.519531 C 33.34375 126.511719 34.355469 127.007812 35.625 127.007812 C 36.652344 127.007812 37.863281 126.738281 39.253906 126.195312 C 40.640625 125.65625 42.335938 124.816406 44.328125 123.671875 C 46.925781 122.230469 50.191406 120.683594 54.117188 119.03125 C 58.046875 117.378906 62.59375 115.980469 67.761719 114.839844 C 72.929688 113.699219 78.59375 113.125 84.757812 113.125 C 89.773438 113.125 93.6875 113.953125 96.5 115.605469 C 99.308594 117.257812 100.714844 119.738281 100.714844 123.042969 C 100.714844 125.023438 100.199219 126.769531 99.171875 128.269531 C 98.144531 129.773438 96.210938 131.183594 93.371094 132.507812 C 90.53125 133.828125 86.390625 135.300781 80.953125 136.925781 L 78.777344 137.554688 C 74.96875 138.695312 71.265625 140.152344 67.671875 141.925781 C 64.074219 143.699219 59.980469 146.507812 55.386719 150.355469 L 51.671875 145.9375 C 56.628906 141.492188 61.191406 138.214844 65.359375 136.113281 C 69.53125 134.007812 73.488281 132.476562 77.234375 131.515625 L 78.957031 131.066406 C 84.515625 129.621094 88.476562 128.375 90.832031 127.324219 C 93.191406 126.273438 94.367188 125.054688 94.367188 123.671875 C 94.367188 122.230469 93.566406 121.164062 91.964844 120.472656 C 90.363281 119.78125 87.960938 119.4375 84.757812 119.4375 C 76.902344 119.4375 69.816406 120.472656 63.5 122.546875 C 57.1875 124.621094 51.792969 126.828125 47.320312 129.171875 C 44.417969 130.675781 42.015625 131.757812 40.113281 132.417969 C 38.210938 133.078125 36.472656 133.410156 34.902344 133.410156 C 32.664062 133.410156 30.761719 132.671875 29.191406 131.199219 C 27.617188 129.726562 25.867188 126.917969 23.933594 122.773438 L 23.207031 121.238281 C 22.058594 118.714844 20.503906 116.703125 18.539062 115.199219 C 16.574219 113.699219 14.472656 112.945312 12.238281 112.945312 C 10.546875 112.945312 9.125 113.425781 7.976562 114.390625 C 6.828125 115.351562 6.253906 116.761719 6.253906 118.625 C 6.253906 119.886719 6.542969 121.285156 7.117188 122.816406 C 7.691406 124.347656 8.371094 125.898438 9.15625 127.460938 C 10.242188 129.683594 11.285156 132.085938 12.285156 134.671875 C 13.28125 137.253906 13.777344 140.019531 13.777344 142.964844 C 13.777344 145.726562 13.507812 148.25 12.964844 150.535156 C 12.417969 152.820312 12.148438 155.34375 12.148438 158.105469 C 12.148438 166.460938 14.625 173.144531 19.582031 178.164062 C 24.535156 183.179688 31.667969 185.691406 40.972656 185.691406 C 45.203125 185.691406 49.527344 185.207031 53.9375 184.246094 C 58.347656 183.285156 62.050781 182.023438 65.042969 180.460938 C 68.035156 178.898438 69.53125 177.21875 69.53125 175.414062 C 69.53125 174.691406 69.46875 174.0625 69.347656 173.519531 C 69.226562 172.980469 68.925781 172.347656 68.441406 171.628906 L 72.519531 166.851562 C 74.757812 169.136719 75.875 171.988281 75.875 175.414062 C 75.875 177.9375 74.878906 180.207031 72.882812 182.21875 C 70.890625 184.234375 68.199219 185.976562 64.816406 187.449219 C 61.429688 188.921875 57.683594 190.046875 53.574219 190.828125 C 49.464844 191.609375 45.265625 192 40.972656 192 M 61.097656 175.414062 L 60.285156 170.003906 C 66.75 168.742188 69.984375 166.339844 69.984375 162.792969 C 69.984375 160.929688 69.410156 159.429688 68.261719 158.289062 L 71.34375 153.148438 C 72.671875 154.109375 73.761719 155.492188 74.605469 157.296875 C 75.453125 159.097656 75.875 160.929688 75.875 162.792969 C 75.875 166.097656 74.636719 168.820312 72.160156 170.953125 C 69.679688 173.085938 65.996094 174.570312 61.097656 175.414062 M 59.105469 163.605469 L 58.199219 158.195312 C 61.703125 157.65625 64.316406 156.710938 66.039062 155.359375 C 67.761719 154.003906 68.625 152.488281 68.625 150.804688 C 68.625 149.183594 68.0625 147.832031 66.945312 146.75 C 65.828125 145.667969 64.210938 144.917969 62.097656 144.496094 L 63.457031 139.085938 C 66.539062 139.449219 69.152344 140.738281 71.296875 142.964844 C 73.441406 145.1875 74.515625 147.800781 74.515625 150.804688 C 74.515625 154.109375 73.1875 156.890625 70.527344 159.144531 C 67.867188 161.398438 64.058594 162.882812 59.105469 163.605469 M 119.75 106.097656 C 109.898438 96.480469 98.960938 91.671875 86.933594 91.671875 C 79.019531 91.671875 70.707031 93.6875 62.003906 97.710938 L 58.921875 91.222656 C 68.714844 86.714844 78.082031 84.460938 87.027344 84.460938 C 100.925781 84.460938 113.527344 89.929688 124.828125 100.867188 Z M 68.804688 55.886719 C 65.660156 55.886719 62.972656 54.566406 60.738281 51.921875 C 58.5 49.277344 57.382812 46.09375 57.382812 42.367188 C 57.382812 38.640625 58.5 35.441406 60.738281 32.765625 C 62.972656 30.09375 65.660156 28.753906 68.804688 28.753906 C 71.945312 28.753906 74.636719 30.09375 76.871094 32.765625 C 79.109375 35.441406 80.226562 38.640625 80.226562 42.367188 C 80.226562 46.03125 79.125 49.203125 76.917969 51.875 C 74.710938 54.550781 72.007812 55.886719 68.804688 55.886719 M 91.105469 22.804688 C 86.089844 17.816406 81.027344 14.300781 75.921875 12.257812 C 70.8125 10.214844 64.816406 9.195312 57.925781 9.195312 L 57.925781 1.984375 C 65.78125 1.984375 72.734375 3.199219 78.777344 5.632812 C 84.820312 8.066406 90.621094 12.109375 96.179688 17.757812 Z M 125.914062 71.210938 C 122.773438 71.210938 120.082031 69.890625 117.847656 67.246094 C 115.609375 64.601562 114.492188 61.414062 114.492188 57.691406 C 114.492188 53.964844 115.609375 50.765625 117.847656 48.089844 C 120.082031 45.414062 122.773438 44.078125 125.914062 44.078125 C 129.058594 44.078125 131.746094 45.414062 133.984375 48.089844 C 136.21875 50.765625 137.335938 53.964844 137.335938 57.691406 C 137.335938 61.355469 136.234375 64.527344 134.027344 67.199219 C 131.824219 69.875 129.117188 71.210938 125.914062 71.210938 M 145.675781 38.941406 C 138 34.554688 130.023438 32.359375 121.746094 32.359375 C 119.628906 32.359375 117.621094 32.464844 115.714844 32.675781 C 113.8125 32.886719 111.984375 33.203125 110.230469 33.621094 L 108.601562 26.589844 C 110.777344 26.109375 112.953125 25.75 115.128906 25.511719 C 117.304688 25.269531 119.507812 25.148438 121.746094 25.148438 C 131.414062 25.148438 140.601562 27.671875 149.304688 32.722656 Z M 145.675781 38.941406 "/>
</g>
</svg>
