<?xml version="1.0" encoding="UTF-8"?>
<svg xmlns="http://www.w3.org/2000/svg" xmlns:xlink="http://www.w3.org/1999/xlink" width="32px" height="32px" viewBox="0 0 32 32" version="1.1">
<g id="surface1">
<path style=" stroke:none;fill-rule:nonzero;fill:rgb(0%,0%,0%);fill-opacity:1;" d="M 16.273438 31.25 C 14.570312 31.25 12.933594 30.988281 11.363281 30.46875 L 12.042969 29.429688 C 13.402344 29.839844 14.8125 30.046875 16.273438 30.046875 C 18.277344 30.046875 20.15625 29.671875 21.90625 28.925781 C 23.660156 28.179688 25.199219 27.148438 26.53125 25.824219 C 27.859375 24.503906 28.898438 22.972656 29.652344 21.226562 C 30.402344 19.484375 30.777344 17.617188 30.777344 15.625 C 30.777344 13.632812 30.402344 11.761719 29.652344 10.019531 C 28.898438 8.277344 27.859375 6.746094 26.53125 5.421875 C 25.199219 4.101562 23.660156 3.066406 21.90625 2.320312 C 20.15625 1.574219 18.277344 1.203125 16.273438 1.203125 C 14.265625 1.203125 12.390625 1.574219 10.636719 2.320312 C 8.882812 3.066406 7.34375 4.101562 6.011719 5.421875 C 4.683594 6.746094 3.644531 8.277344 2.894531 10.019531 C 2.144531 11.761719 1.769531 13.632812 1.769531 15.625 C 1.769531 16.625 1.867188 17.617188 2.070312 18.597656 L 0.90625 18.898438 C 0.796875 18.367188 0.710938 17.828125 0.648438 17.285156 C 0.589844 16.738281 0.558594 16.183594 0.558594 15.625 C 0.558594 13.460938 0.964844 11.433594 1.773438 9.546875 C 2.585938 7.660156 3.710938 6 5.152344 4.566406 C 6.59375 3.136719 8.261719 2.015625 10.160156 1.210938 C 12.058594 0.402344 14.097656 0 16.273438 0 C 18.4375 0 20.46875 0.402344 22.367188 1.210938 C 24.265625 2.015625 25.9375 3.136719 27.375 4.566406 C 28.816406 6 29.945312 7.660156 30.761719 9.546875 C 31.578125 11.433594 31.984375 13.460938 31.984375 15.625 C 31.984375 17.789062 31.578125 19.8125 30.761719 21.703125 C 29.945312 23.589844 28.816406 25.25 27.375 26.683594 C 25.9375 28.113281 24.265625 29.234375 22.367188 30.039062 C 20.46875 30.84375 18.4375 31.25 16.273438 31.25 M 6.828125 32 C 4.90625 32 3.449219 31.492188 2.457031 30.476562 C 1.464844 29.457031 0.96875 28.074219 0.96875 26.320312 C 0.96875 25.851562 1.011719 25.402344 1.101562 24.976562 C 1.195312 24.550781 1.238281 24.167969 1.238281 23.828125 C 1.238281 23.386719 1.167969 22.984375 1.027344 22.617188 C 0.886719 22.253906 0.734375 21.902344 0.574219 21.574219 C 0.414062 21.242188 0.273438 20.917969 0.160156 20.597656 C 0.0429688 20.277344 -0.015625 19.953125 -0.015625 19.621094 C -0.015625 19.078125 0.15625 18.640625 0.5 18.296875 C 0.839844 17.957031 1.3125 17.789062 1.917969 17.789062 C 2.542969 17.789062 3.113281 17.96875 3.625 18.328125 C 4.140625 18.6875 4.539062 19.171875 4.820312 19.769531 L 4.941406 20.027344 C 5.140625 20.457031 5.304688 20.753906 5.429688 20.921875 C 5.558594 21.085938 5.726562 21.167969 5.9375 21.167969 C 6.109375 21.167969 6.308594 21.121094 6.542969 21.03125 C 6.773438 20.941406 7.054688 20.800781 7.386719 20.613281 C 7.820312 20.371094 8.363281 20.113281 9.019531 19.839844 C 9.675781 19.5625 10.433594 19.332031 11.292969 19.140625 C 12.15625 18.949219 13.097656 18.855469 14.125 18.855469 C 14.960938 18.855469 15.613281 18.992188 16.082031 19.269531 C 16.550781 19.542969 16.785156 19.957031 16.785156 20.507812 C 16.785156 20.835938 16.699219 21.128906 16.527344 21.378906 C 16.359375 21.628906 16.035156 21.863281 15.5625 22.085938 C 15.089844 22.304688 14.398438 22.550781 13.492188 22.820312 L 13.128906 22.925781 C 12.496094 23.117188 11.878906 23.359375 11.277344 23.65625 C 10.679688 23.949219 9.996094 24.417969 9.230469 25.058594 L 8.613281 24.324219 C 9.4375 23.582031 10.199219 23.035156 10.894531 22.683594 C 11.589844 22.335938 12.246094 22.078125 12.871094 21.917969 L 13.160156 21.84375 C 14.085938 21.605469 14.746094 21.394531 15.140625 21.21875 C 15.53125 21.046875 15.726562 20.84375 15.726562 20.613281 C 15.726562 20.371094 15.59375 20.195312 15.328125 20.078125 C 15.0625 19.964844 14.660156 19.90625 14.125 19.90625 C 12.816406 19.90625 11.636719 20.078125 10.582031 20.425781 C 9.53125 20.769531 8.632812 21.136719 7.886719 21.527344 C 7.402344 21.777344 7.003906 21.960938 6.6875 22.070312 C 6.367188 22.179688 6.078125 22.234375 5.816406 22.234375 C 5.445312 22.234375 5.125 22.113281 4.863281 21.867188 C 4.601562 21.621094 4.3125 21.152344 3.988281 20.460938 L 3.867188 20.207031 C 3.675781 19.785156 3.417969 19.449219 3.089844 19.199219 C 2.761719 18.949219 2.414062 18.824219 2.039062 18.824219 C 1.757812 18.824219 1.519531 18.90625 1.328125 19.066406 C 1.136719 19.226562 1.042969 19.460938 1.042969 19.769531 C 1.042969 19.980469 1.089844 20.214844 1.1875 20.46875 C 1.28125 20.726562 1.394531 20.984375 1.527344 21.242188 C 1.707031 21.613281 1.882812 22.015625 2.046875 22.445312 C 2.214844 22.875 2.296875 23.335938 2.296875 23.828125 C 2.296875 24.289062 2.25 24.707031 2.160156 25.089844 C 2.070312 25.46875 2.023438 25.890625 2.023438 26.351562 C 2.023438 27.742188 2.4375 28.859375 3.261719 29.695312 C 4.089844 30.53125 5.277344 30.949219 6.828125 30.949219 C 7.535156 30.949219 8.253906 30.867188 8.988281 30.707031 C 9.726562 30.546875 10.34375 30.335938 10.839844 30.078125 C 11.339844 29.816406 11.589844 29.535156 11.589844 29.234375 C 11.589844 29.117188 11.578125 29.011719 11.558594 28.921875 C 11.539062 28.828125 11.488281 28.726562 11.40625 28.605469 L 12.085938 27.808594 C 12.460938 28.1875 12.644531 28.664062 12.644531 29.234375 C 12.644531 29.65625 12.480469 30.035156 12.148438 30.371094 C 11.816406 30.707031 11.367188 30.996094 10.800781 31.242188 C 10.238281 31.488281 9.613281 31.675781 8.929688 31.804688 C 8.246094 31.933594 7.542969 32 6.828125 32 M 10.183594 29.234375 L 10.046875 28.335938 C 11.125 28.125 11.664062 27.722656 11.664062 27.132812 C 11.664062 26.820312 11.566406 26.570312 11.375 26.382812 L 11.890625 25.523438 C 12.113281 25.683594 12.292969 25.914062 12.433594 26.214844 C 12.574219 26.515625 12.644531 26.820312 12.644531 27.132812 C 12.644531 27.683594 12.4375 28.136719 12.027344 28.492188 C 11.613281 28.847656 11 29.09375 10.183594 29.234375 M 9.851562 27.269531 L 9.699219 26.367188 C 10.285156 26.277344 10.71875 26.117188 11.007812 25.894531 C 11.292969 25.667969 11.4375 25.414062 11.4375 25.132812 C 11.4375 24.863281 11.34375 24.636719 11.15625 24.457031 C 10.972656 24.277344 10.703125 24.152344 10.347656 24.082031 L 10.574219 23.179688 C 11.089844 23.242188 11.523438 23.457031 11.882812 23.828125 C 12.242188 24.199219 12.417969 24.632812 12.417969 25.132812 C 12.417969 25.683594 12.199219 26.148438 11.753906 26.523438 C 11.3125 26.898438 10.675781 27.148438 9.851562 27.269531 M 19.957031 17.683594 C 18.316406 16.082031 16.492188 15.277344 14.488281 15.277344 C 13.167969 15.277344 11.785156 15.613281 10.335938 16.285156 L 9.820312 15.203125 C 11.453125 14.453125 13.011719 14.078125 14.503906 14.078125 C 16.820312 14.078125 18.921875 14.988281 20.804688 16.8125 Z M 11.46875 9.316406 C 10.945312 9.316406 10.496094 9.09375 10.121094 8.652344 C 9.75 8.210938 9.5625 7.683594 9.5625 7.0625 C 9.5625 6.441406 9.75 5.90625 10.121094 5.460938 C 10.496094 5.015625 10.945312 4.792969 11.46875 4.792969 C 11.992188 4.792969 12.4375 5.015625 12.8125 5.460938 C 13.183594 5.90625 13.371094 6.441406 13.371094 7.0625 C 13.371094 7.671875 13.1875 8.199219 12.820312 8.644531 C 12.453125 9.089844 12 9.316406 11.46875 9.316406 M 15.183594 3.800781 C 14.347656 2.96875 13.503906 2.382812 12.652344 2.042969 C 11.800781 1.703125 10.800781 1.53125 9.65625 1.53125 L 9.65625 0.332031 C 10.964844 0.332031 12.121094 0.535156 13.128906 0.9375 C 14.136719 1.34375 15.105469 2.019531 16.03125 2.960938 Z M 20.984375 11.867188 C 20.460938 11.867188 20.015625 11.648438 19.640625 11.207031 C 19.269531 10.765625 19.082031 10.234375 19.082031 9.613281 C 19.082031 8.992188 19.269531 8.460938 19.640625 8.015625 C 20.015625 7.570312 20.460938 7.347656 20.984375 7.347656 C 21.507812 7.347656 21.957031 7.570312 22.332031 8.015625 C 22.703125 8.460938 22.890625 8.992188 22.890625 9.613281 C 22.890625 10.226562 22.707031 10.753906 22.339844 11.199219 C 21.96875 11.644531 21.519531 11.867188 20.984375 11.867188 M 24.28125 6.488281 C 23 5.757812 21.671875 5.394531 20.289062 5.394531 C 19.9375 5.394531 19.601562 5.410156 19.285156 5.445312 C 18.96875 5.480469 18.664062 5.535156 18.371094 5.605469 L 18.101562 4.433594 C 18.460938 4.351562 18.824219 4.292969 19.1875 4.25 C 19.550781 4.210938 19.917969 4.191406 20.289062 4.191406 C 21.902344 4.191406 23.433594 4.613281 24.882812 5.453125 Z M 24.28125 6.488281 "/>
</g>
</svg>
