<?xml version="1.0" encoding="UTF-8"?>
<svg xmlns="http://www.w3.org/2000/svg" xmlns:xlink="http://www.w3.org/1999/xlink" width="512px" height="512px" viewBox="0 0 512 512" version="1.1">
<g id="surface1">
<path style=" stroke:none;fill-rule:nonzero;fill:rgb(0%,0%,0%);fill-opacity:1;" d="M 260.351562 499.980469 C 233.117188 499.980469 206.925781 495.8125 181.785156 487.480469 L 192.664062 470.894531 C 214.421875 477.46875 236.984375 480.75 260.351562 480.75 C 292.421875 480.75 322.476562 474.78125 350.519531 462.84375 C 378.5625 450.90625 403.21875 434.359375 424.492188 413.207031 C 445.765625 392.050781 462.402344 367.535156 474.410156 339.652344 C 486.417969 311.765625 492.417969 281.878906 492.417969 249.992188 C 492.417969 218.101562 486.417969 188.214844 474.410156 160.332031 C 462.402344 132.445312 445.765625 107.929688 424.492188 86.777344 C 403.21875 65.621094 378.5625 49.078125 350.519531 37.136719 C 322.476562 25.199219 292.421875 19.230469 260.351562 19.230469 C 228.28125 19.230469 198.226562 25.199219 170.183594 37.136719 C 142.140625 49.078125 117.484375 65.621094 96.210938 86.777344 C 74.9375 107.929688 58.300781 132.445312 46.292969 160.332031 C 34.285156 188.214844 28.285156 218.101562 28.285156 249.992188 C 28.285156 266.015625 29.894531 281.878906 33.117188 297.585938 L 14.503906 302.390625 C 12.722656 293.847656 11.351562 285.226562 10.394531 276.550781 C 9.429688 267.820312 8.945312 258.964844 8.945312 249.992188 C 8.945312 215.375 15.429688 182.964844 28.402344 152.757812 C 41.378906 122.550781 59.386719 95.988281 82.433594 73.074219 C 105.476562 50.160156 132.191406 32.25 162.570312 19.351562 C 192.945312 6.449219 225.542969 0 260.351562 0 C 295 0 327.515625 6.449219 357.890625 19.351562 C 388.269531 32.25 414.984375 50.160156 438.027344 73.074219 C 461.074219 95.988281 479.125 122.550781 492.175781 152.757812 C 505.230469 182.964844 511.757812 215.375 511.757812 249.992188 C 511.757812 284.605469 505.230469 317.015625 492.175781 347.222656 C 479.125 377.429688 461.074219 403.992188 438.027344 426.90625 C 414.984375 449.824219 388.269531 467.734375 357.890625 480.632812 C 327.515625 493.53125 295 499.980469 260.351562 499.980469 M 109.265625 512 C 78.484375 512 55.15625 503.867188 39.28125 487.601562 C 23.410156 471.339844 15.472656 449.179688 15.472656 421.136719 C 15.472656 413.605469 16.195312 406.433594 17.648438 399.625 C 19.097656 392.8125 19.824219 386.683594 19.824219 381.234375 C 19.824219 374.183594 18.695312 367.734375 16.4375 361.886719 C 14.183594 356.035156 11.765625 350.46875 9.1875 345.179688 C 6.609375 339.890625 4.390625 334.683594 2.539062 329.554688 C 0.683594 324.425781 -0.242188 319.21875 -0.242188 313.929688 C -0.242188 305.277344 2.496094 298.226562 7.976562 292.777344 C 13.457031 287.328125 21.03125 284.605469 30.699219 284.605469 C 40.691406 284.605469 49.796875 287.488281 58.015625 293.257812 C 66.234375 299.027344 72.601562 306.71875 77.113281 316.335938 L 79.046875 320.421875 C 82.269531 327.3125 84.890625 332.078125 86.90625 334.722656 C 88.917969 337.367188 91.617188 338.6875 95.003906 338.6875 C 97.742188 338.6875 100.964844 337.96875 104.671875 336.527344 C 108.378906 335.082031 112.890625 332.839844 118.210938 329.796875 C 125.140625 325.949219 133.84375 321.824219 144.316406 317.414062 C 154.792969 313.007812 166.917969 309.285156 180.699219 306.238281 C 194.476562 303.195312 209.585938 301.671875 226.023438 301.671875 C 239.402344 301.671875 249.835938 303.875 257.328125 308.28125 C 264.824219 312.6875 268.570312 319.300781 268.570312 328.113281 C 268.570312 333.402344 267.199219 338.046875 264.460938 342.054688 C 261.722656 346.0625 256.5625 349.828125 248.988281 353.351562 C 241.414062 356.878906 230.375 360.804688 215.871094 365.128906 L 210.070312 366.8125 C 199.917969 369.859375 190.046875 373.742188 180.457031 378.472656 C 170.867188 383.199219 159.949219 390.691406 147.703125 400.945312 L 137.789062 389.167969 C 151.003906 377.308594 163.171875 368.574219 174.292969 362.96875 C 185.414062 357.359375 195.96875 353.273438 205.960938 350.707031 L 210.554688 349.507812 C 225.378906 345.660156 235.9375 342.335938 242.222656 339.53125 C 248.507812 336.726562 251.648438 333.480469 251.648438 329.796875 C 251.648438 325.949219 249.511719 323.105469 245.242188 321.261719 C 240.972656 319.417969 234.566406 318.496094 226.023438 318.496094 C 205.074219 318.496094 186.179688 321.261719 169.335938 326.789062 C 152.496094 332.320312 138.113281 338.207031 126.1875 344.457031 C 118.453125 348.464844 112.046875 351.347656 106.96875 353.113281 C 101.890625 354.875 97.257812 355.757812 93.070312 355.757812 C 87.105469 355.757812 82.03125 353.792969 77.839844 349.867188 C 73.648438 345.941406 68.976562 338.449219 63.820312 327.390625 L 61.886719 323.304688 C 58.824219 316.574219 54.671875 311.207031 49.433594 307.199219 C 44.199219 303.195312 38.597656 301.191406 32.632812 301.191406 C 28.121094 301.191406 24.335938 302.472656 21.273438 305.035156 C 18.210938 307.601562 16.679688 311.367188 16.679688 316.335938 C 16.679688 319.699219 17.445312 323.425781 18.976562 327.511719 C 20.507812 331.597656 22.320312 335.722656 24.414062 339.890625 C 27.316406 345.820312 30.097656 352.230469 32.753906 359.121094 C 35.414062 366.011719 36.742188 373.382812 36.742188 381.234375 C 36.742188 388.605469 36.019531 395.335938 34.570312 401.425781 C 33.117188 407.515625 32.394531 414.246094 32.394531 421.617188 C 32.394531 443.890625 39 461.722656 52.214844 475.101562 C 65.429688 488.480469 84.445312 495.171875 109.265625 495.171875 C 120.546875 495.171875 132.070312 493.890625 143.832031 491.328125 C 155.597656 488.765625 165.46875 485.398438 173.445312 481.230469 C 181.425781 477.0625 185.414062 472.578125 185.414062 467.769531 C 185.414062 465.847656 185.25 464.164062 184.929688 462.722656 C 184.605469 461.28125 183.800781 459.597656 182.511719 457.675781 L 193.390625 444.933594 C 199.351562 451.027344 202.335938 458.636719 202.335938 467.769531 C 202.335938 474.5 199.675781 480.550781 194.355469 485.917969 C 189.039062 491.289062 181.867188 495.933594 172.84375 499.859375 C 163.816406 503.789062 153.824219 506.792969 142.867188 508.875 C 131.90625 510.957031 120.707031 512 109.265625 512 M 162.929688 467.769531 L 160.753906 453.347656 C 178 449.984375 186.621094 443.574219 186.621094 434.117188 C 186.621094 429.152344 185.089844 425.144531 182.027344 422.097656 L 190.246094 408.398438 C 193.792969 410.960938 196.695312 414.648438 198.949219 419.457031 C 201.207031 424.261719 202.335938 429.152344 202.335938 434.117188 C 202.335938 442.929688 199.03125 450.183594 192.421875 455.871094 C 185.816406 461.558594 175.984375 465.527344 162.929688 467.769531 M 157.613281 436.28125 L 155.195312 421.859375 C 164.542969 420.417969 171.511719 417.894531 176.105469 414.289062 C 180.699219 410.683594 182.996094 406.636719 182.996094 402.148438 C 182.996094 397.820312 181.503906 394.214844 178.523438 391.332031 C 175.542969 388.445312 171.230469 386.445312 165.589844 385.320312 L 169.214844 370.898438 C 177.433594 371.859375 184.40625 375.304688 190.125 381.234375 C 195.847656 387.164062 198.707031 394.136719 198.707031 402.148438 C 198.707031 410.960938 195.164062 418.375 188.070312 424.382812 C 180.980469 430.390625 170.828125 434.359375 157.613281 436.28125 M 319.335938 282.921875 C 293.066406 257.28125 263.898438 244.460938 231.828125 244.460938 C 210.714844 244.460938 188.554688 249.832031 165.347656 260.566406 L 157.128906 243.261719 C 183.238281 231.242188 208.214844 225.230469 232.066406 225.230469 C 269.132812 225.230469 302.734375 239.816406 332.871094 268.980469 Z M 183.480469 149.03125 C 175.097656 149.03125 167.925781 145.507812 161.964844 138.457031 C 156 131.40625 153.019531 122.910156 153.019531 112.976562 C 153.019531 103.039062 156 94.507812 161.964844 87.375 C 167.925781 80.246094 175.097656 76.679688 183.480469 76.679688 C 191.859375 76.679688 199.03125 80.246094 204.992188 87.375 C 210.957031 94.507812 213.9375 103.039062 213.9375 112.976562 C 213.9375 122.75 210.996094 131.203125 205.113281 138.335938 C 199.230469 145.46875 192.019531 149.03125 183.480469 149.03125 M 242.945312 60.816406 C 229.570312 47.515625 216.074219 38.140625 202.457031 32.691406 C 188.835938 27.242188 172.84375 24.519531 154.46875 24.519531 L 154.46875 5.289062 C 175.421875 5.289062 193.953125 8.535156 210.070312 15.023438 C 226.1875 21.511719 241.65625 32.289062 256.484375 47.355469 Z M 335.773438 189.898438 C 327.394531 189.898438 320.222656 186.371094 314.257812 179.320312 C 308.296875 172.269531 305.3125 163.777344 305.3125 153.839844 C 305.3125 143.90625 308.296875 135.371094 314.257812 128.242188 C 320.222656 121.109375 327.394531 117.542969 335.773438 117.542969 C 344.152344 117.542969 351.324219 121.109375 357.289062 128.242188 C 363.25 135.371094 366.230469 143.90625 366.230469 153.839844 C 366.230469 163.617188 363.292969 172.070312 357.410156 179.199219 C 351.527344 186.332031 344.316406 189.898438 335.773438 189.898438 M 388.472656 103.84375 C 368.003906 92.144531 346.730469 86.292969 324.652344 86.292969 C 319.011719 86.292969 313.65625 86.574219 308.578125 87.136719 C 303.5 87.695312 298.625 88.539062 293.953125 89.660156 L 289.601562 70.910156 C 295.402344 69.628906 301.203125 68.667969 307.007812 68.027344 C 312.808594 67.386719 318.691406 67.066406 324.652344 67.066406 C 350.4375 67.066406 374.933594 73.796875 398.140625 87.257812 Z M 388.472656 103.84375 "/>
</g>
</svg>
