<?xml version="1.0" encoding="UTF-8"?>
<svg xmlns="http://www.w3.org/2000/svg" xmlns:xlink="http://www.w3.org/1999/xlink" width="16px" height="16px" viewBox="0 0 16 16" version="1.1">
<g id="surface1">
<path style=" stroke:none;fill-rule:nonzero;fill:rgb(0%,0%,0%);fill-opacity:1;" d="M 8.136719 15.625 C 7.285156 15.625 6.464844 15.496094 5.679688 15.234375 L 6.019531 14.714844 C 6.699219 14.921875 7.40625 15.023438 8.136719 15.023438 C 9.136719 15.023438 10.078125 14.835938 10.953125 14.464844 C 11.828125 14.089844 12.601562 13.574219 13.265625 12.914062 C 13.929688 12.25 14.449219 11.484375 14.824219 10.613281 C 15.199219 9.742188 15.386719 8.808594 15.386719 7.8125 C 15.386719 6.816406 15.199219 5.882812 14.824219 5.011719 C 14.449219 4.140625 13.929688 3.371094 13.265625 2.710938 C 12.601562 2.050781 11.828125 1.535156 10.953125 1.160156 C 10.078125 0.789062 9.136719 0.601562 8.136719 0.601562 C 7.132812 0.601562 6.195312 0.789062 5.316406 1.160156 C 4.441406 1.535156 3.671875 2.050781 3.007812 2.710938 C 2.34375 3.371094 1.820312 4.140625 1.445312 5.011719 C 1.070312 5.882812 0.882812 6.816406 0.882812 7.8125 C 0.882812 8.3125 0.933594 8.808594 1.035156 9.300781 L 0.453125 9.449219 C 0.398438 9.183594 0.355469 8.914062 0.324219 8.640625 C 0.292969 8.371094 0.28125 8.09375 0.28125 7.8125 C 0.28125 6.730469 0.480469 5.71875 0.886719 4.773438 C 1.292969 3.828125 1.855469 3 2.574219 2.285156 C 3.296875 1.566406 4.132812 1.007812 5.082031 0.605469 C 6.03125 0.203125 7.046875 0 8.136719 0 C 9.21875 0 10.234375 0.203125 11.183594 0.605469 C 12.132812 1.007812 12.96875 1.566406 13.6875 2.285156 C 14.410156 3 14.972656 3.828125 15.378906 4.773438 C 15.789062 5.71875 15.992188 6.730469 15.992188 7.8125 C 15.992188 8.894531 15.789062 9.90625 15.378906 10.851562 C 14.972656 11.792969 14.410156 12.625 13.6875 13.339844 C 12.96875 14.058594 12.132812 14.617188 11.183594 15.019531 C 10.234375 15.421875 9.21875 15.625 8.136719 15.625 M 3.414062 16 C 2.453125 16 1.722656 15.746094 1.226562 15.238281 C 0.730469 14.730469 0.484375 14.035156 0.484375 13.160156 C 0.484375 12.925781 0.507812 12.699219 0.550781 12.488281 C 0.597656 12.277344 0.621094 12.082031 0.621094 11.914062 C 0.621094 11.691406 0.585938 11.492188 0.515625 11.308594 C 0.441406 11.125 0.367188 10.953125 0.285156 10.785156 C 0.207031 10.621094 0.136719 10.457031 0.078125 10.296875 C 0.0195312 10.136719 -0.0078125 9.976562 -0.0078125 9.808594 C -0.0078125 9.539062 0.078125 9.320312 0.25 9.148438 C 0.421875 8.980469 0.65625 8.894531 0.960938 8.894531 C 1.273438 8.894531 1.554688 8.984375 1.8125 9.164062 C 2.070312 9.34375 2.269531 9.585938 2.410156 9.886719 L 2.46875 10.011719 C 2.570312 10.226562 2.652344 10.378906 2.714844 10.460938 C 2.777344 10.542969 2.863281 10.585938 2.96875 10.585938 C 3.054688 10.585938 3.15625 10.5625 3.269531 10.515625 C 3.386719 10.472656 3.527344 10.402344 3.695312 10.304688 C 3.910156 10.1875 4.183594 10.058594 4.511719 9.917969 C 4.835938 9.78125 5.214844 9.664062 5.648438 9.570312 C 6.078125 9.476562 6.550781 9.425781 7.0625 9.425781 C 7.480469 9.425781 7.808594 9.496094 8.042969 9.632812 C 8.277344 9.773438 8.394531 9.976562 8.394531 10.253906 C 8.394531 10.417969 8.351562 10.5625 8.265625 10.6875 C 8.179688 10.8125 8.019531 10.933594 7.78125 11.042969 C 7.542969 11.152344 7.199219 11.273438 6.746094 11.410156 L 6.566406 11.464844 C 6.246094 11.558594 5.9375 11.679688 5.640625 11.828125 C 5.339844 11.976562 5 12.210938 4.617188 12.53125 L 4.304688 12.160156 C 4.71875 11.789062 5.097656 11.519531 5.445312 11.34375 C 5.792969 11.167969 6.125 11.039062 6.4375 10.960938 L 6.578125 10.921875 C 7.042969 10.800781 7.371094 10.699219 7.570312 10.609375 C 7.765625 10.523438 7.863281 10.421875 7.863281 10.304688 C 7.863281 10.1875 7.796875 10.097656 7.664062 10.039062 C 7.53125 9.980469 7.332031 9.953125 7.0625 9.953125 C 6.410156 9.953125 5.816406 10.039062 5.292969 10.210938 C 4.765625 10.386719 4.316406 10.570312 3.941406 10.765625 C 3.703125 10.890625 3.5 10.980469 3.34375 11.035156 C 3.183594 11.089844 3.039062 11.117188 2.910156 11.117188 C 2.722656 11.117188 2.5625 11.054688 2.433594 10.933594 C 2.300781 10.8125 2.15625 10.578125 1.996094 10.230469 L 1.933594 10.101562 C 1.839844 9.894531 1.707031 9.726562 1.542969 9.601562 C 1.382812 9.476562 1.207031 9.414062 1.019531 9.414062 C 0.878906 9.414062 0.761719 9.453125 0.664062 9.53125 C 0.570312 9.613281 0.519531 9.730469 0.519531 9.886719 C 0.519531 9.992188 0.546875 10.105469 0.59375 10.234375 C 0.640625 10.363281 0.699219 10.492188 0.761719 10.621094 C 0.855469 10.808594 0.941406 11.007812 1.023438 11.222656 C 1.105469 11.4375 1.148438 11.667969 1.148438 11.914062 C 1.148438 12.144531 1.125 12.355469 1.082031 12.542969 C 1.035156 12.734375 1.011719 12.945312 1.011719 13.175781 C 1.011719 13.871094 1.21875 14.429688 1.632812 14.847656 C 2.042969 15.265625 2.640625 15.472656 3.414062 15.472656 C 3.765625 15.472656 4.128906 15.433594 4.496094 15.355469 C 4.863281 15.273438 5.171875 15.167969 5.421875 15.039062 C 5.667969 14.910156 5.792969 14.769531 5.792969 14.617188 C 5.792969 14.558594 5.789062 14.503906 5.777344 14.460938 C 5.769531 14.414062 5.742188 14.363281 5.703125 14.300781 L 6.042969 13.902344 C 6.230469 14.09375 6.324219 14.332031 6.324219 14.617188 C 6.324219 14.828125 6.238281 15.015625 6.074219 15.183594 C 5.90625 15.351562 5.683594 15.496094 5.402344 15.621094 C 5.121094 15.742188 4.808594 15.835938 4.464844 15.902344 C 4.121094 15.96875 3.773438 16 3.414062 16 M 5.089844 14.617188 L 5.023438 14.167969 C 5.5625 14.0625 5.832031 13.863281 5.832031 13.566406 C 5.832031 13.410156 5.785156 13.285156 5.6875 13.191406 L 5.945312 12.761719 C 6.054688 12.84375 6.148438 12.957031 6.21875 13.109375 C 6.289062 13.257812 6.324219 13.410156 6.324219 13.566406 C 6.324219 13.839844 6.21875 14.066406 6.011719 14.246094 C 5.808594 14.421875 5.5 14.546875 5.089844 14.617188 M 4.925781 13.632812 L 4.851562 13.183594 C 5.140625 13.136719 5.359375 13.058594 5.503906 12.945312 C 5.648438 12.832031 5.71875 12.707031 5.71875 12.566406 C 5.71875 12.433594 5.671875 12.320312 5.578125 12.230469 C 5.484375 12.140625 5.351562 12.078125 5.175781 12.042969 L 5.289062 11.589844 C 5.542969 11.621094 5.761719 11.726562 5.941406 11.914062 C 6.121094 12.097656 6.210938 12.316406 6.210938 12.566406 C 6.210938 12.84375 6.097656 13.074219 5.878906 13.261719 C 5.65625 13.449219 5.339844 13.574219 4.925781 13.632812 M 9.980469 8.839844 C 9.160156 8.039062 8.246094 7.640625 7.246094 7.640625 C 6.585938 7.640625 5.890625 7.808594 5.167969 8.144531 L 4.910156 7.601562 C 5.726562 7.226562 6.507812 7.039062 7.253906 7.039062 C 8.410156 7.039062 9.460938 7.496094 10.402344 8.40625 Z M 5.734375 4.65625 C 5.472656 4.65625 5.246094 4.546875 5.0625 4.328125 C 4.875 4.105469 4.78125 3.839844 4.78125 3.53125 C 4.78125 3.21875 4.875 2.953125 5.0625 2.730469 C 5.246094 2.507812 5.472656 2.394531 5.734375 2.394531 C 5.996094 2.394531 6.21875 2.507812 6.40625 2.730469 C 6.59375 2.953125 6.6875 3.21875 6.6875 3.53125 C 6.6875 3.835938 6.59375 4.101562 6.410156 4.324219 C 6.226562 4.546875 6 4.65625 5.734375 4.65625 M 7.59375 1.902344 C 7.175781 1.484375 6.753906 1.191406 6.328125 1.023438 C 5.902344 0.851562 5.402344 0.765625 4.828125 0.765625 L 4.828125 0.164062 C 5.480469 0.164062 6.0625 0.265625 6.566406 0.46875 C 7.066406 0.671875 7.550781 1.007812 8.015625 1.480469 Z M 10.492188 5.933594 C 10.230469 5.933594 10.007812 5.824219 9.820312 5.605469 C 9.632812 5.382812 9.542969 5.117188 9.542969 4.808594 C 9.542969 4.496094 9.632812 4.230469 9.820312 4.007812 C 10.007812 3.785156 10.230469 3.671875 10.492188 3.671875 C 10.753906 3.671875 10.980469 3.785156 11.164062 4.007812 C 11.351562 4.230469 11.445312 4.496094 11.445312 4.808594 C 11.445312 5.113281 11.351562 5.378906 11.167969 5.601562 C 10.984375 5.824219 10.761719 5.933594 10.492188 5.933594 M 12.140625 3.246094 C 11.5 2.878906 10.835938 2.695312 10.144531 2.695312 C 9.96875 2.695312 9.800781 2.707031 9.644531 2.722656 C 9.484375 2.742188 9.332031 2.765625 9.1875 2.800781 L 9.050781 2.214844 C 9.230469 2.175781 9.414062 2.144531 9.59375 2.125 C 9.773438 2.105469 9.960938 2.097656 10.144531 2.097656 C 10.953125 2.097656 11.714844 2.304688 12.441406 2.726562 Z M 12.140625 3.246094 "/>
</g>
</svg>
