<svg xmlns="http://www.w3.org/2000/svg" viewBox="-17 80 1059 1065"><path d="M521.5 1120c-56.333 0-110.5-8.67-162.5-26l22.5-34.5c45 13.67 91.667 20.5 140 20.5 66.333 0 128.5-12.42 186.5-37.25S817 983.5 861 939.5q66-66 103.25-153T1001.5 600t-37.25-186.5T861 260.5 708 157.25 521.5 120 335 157.25 182 260.5t-103.25 153T41.5 600q0 50 10 99L13 709a573 573 0 0 1-8.5-53.75Q1.5 628 1.5 600q0-108 40.25-202.25T153.5 232t165.75-111.75T521.5 80q107.5 0 201.75 40.25T889 232t112 165.75T1041.5 600 1001 802.25 889 968q-71.5 71.505-165.75 111.75C660.417 1106.58 593.167 1120 521.5 1120M209 1145c-63.667 0-111.917-16.92-144.75-50.75S15 1014.33 15 956q0-23.5 4.5-44.75T24 873q0-22-7-40.25T2 798t-13.75-32.5-5.75-32.5q0-27 17-44t47-17q31 0 56.5 18t39.5 48l4 8.5q10 21.5 16.25 29.75t16.75 8.25q8.5 0 20-4.5t28-14q21.5-12 54-25.75T356.75 717t93.75-9.5q41.5 0 64.75 13.75t23.25 41.25q0 16.5-8.5 29T498 815t-68.5 24.5l-12 3.5q-31.5 9.5-61.25 24.25T288.5 914L268 889.5q41-37 75.5-54.5t65.5-25.5l9.5-2.5q46-12 65.5-20.75T503.5 766q0-12-13.25-17.75t-39.75-5.75q-65 0-117.25 17.25T244 796.5q-24 12.5-39.75 18T175.5 820q-18.5 0-31.5-12.25T115 761l-4-8.5q-9.5-21-25.75-33.5T50.5 706.5q-14 0-23.5 8T17.5 738q0 10.5 4.75 23.25T33.5 787q9 18.5 17.25 40T59 873q0 23-4.5 42T50 957c0 46.33 13.667 83.42 41 111.25S157.667 1110 209 1110c23.333 0 47.167-2.67 71.5-8q36.5-7.995 61.25-21c16.5-8.67 24.75-18 24.75-28q0-6-1-10.5t-5-10.5l22.5-26.5c12.333 12.67 18.5 28.5 18.5 47.5 0 14-5.5 26.58-16.5 37.75s-25.833 20.83-44.5 29q-28 12.255-62 18.75c-22.667 4.33-45.833 6.5-69.5 6.5m111-92-4.5-30c35.667-7 53.5-20.33 53.5-40q0-15.5-9.5-25l17-28.5q11 8 18 23t7 30.5c0 18.33-6.833 33.42-20.5 45.25q-20.5 17.745-61 24.75m-11-65.5-5-30q29-4.5 43.25-15.75t14.25-25.25q0-13.5-9.25-22.5t-26.75-12.5l7.5-30q25.5 3 43.25 21.5T394 916.5q0 27.5-22 46.25t-63 24.75m334.5-319q-81.5-80-181-80-65.5 0-137.5 33.5l-17-36q81-37.5 155-37.5 115 0 208.5 91ZM362.5 390q-26 0-44.5-22t-18.5-53 18.5-53.25 44.5-22.25 44.5 22.25T425.5 315q0 30.5-18.25 52.75T362.5 390m123-183.5Q444 165 401.75 148t-99.25-17V91q65 0 115 20.25t96 67.25Zm192 268.5q-26 0-44.5-22t-18.5-53 18.5-53.25 44.5-22.25 44.5 22.25T740.5 400q0 30.5-18.25 52.75T677.5 475m109-179q-63.5-36.5-132-36.5-17.5 0-33.25 1.75T591 266.5l-9-39q18-4 36-6t36.5-2q80 0 152 42Z"/></svg>